<svg xmlns="http://www.w3.org/2000/svg" viewBox="0 0 64 64" role="img" aria-label="GitHub User Search">
  <defs>
    <linearGradient id="g" x1="0%" y1="0%" x2="100%" y2="100%">
      <stop offset="0%" stop-color="#2d7ff9" />
      <stop offset="100%" stop-color="#0d55c2" />
    </linearGradient>
  </defs>
  <rect width="64" height="64" rx="12" fill="url(#g)" />
  <path fill="#ffffff" d="M32 14c-8.8 0-16 6.7-16 15 0 6.2 3.9 11.4 9.6 13.6l-1.2 5c-.3 1.1.9 1.9 1.8 1.3l6-3.6h0c8.8 0 16-6.7 16-15S40.8 14 32 14zm-7 14a3 3 0 116 0 3 3 0 01-6 0zm5.5 12c-3.8 0-7.1-2.2-8.7-5.4.1-2.2 4.5-3.4 8.7-3.4 4.2 0 8.6 1.2 8.7 3.4-1.6 3.2-4.9 5.4-8.7 5.4zm5.5-9a3 3 0 110-6 3 3 0 010 6z" />
</svg>
